<svg xmlns="http://www.w3.org/2000/svg" xmlns:xlink="http://www.w3.org/1999/xlink" width="500" zoomAndPan="magnify" viewBox="0 0 375 128.249994" height="171" preserveAspectRatio="xMidYMid meet" version="1.0"><defs><clipPath id="c1518e21f7"><path d="M 1.089844 0 L 373.910156 0 L 373.910156 127.503906 L 1.089844 127.503906 Z M 1.089844 0 " clip-rule="nonzero"/></clipPath><clipPath id="261d6bc2b9"><path d="M 88.140625 84.449219 L 92.613281 84.449219 L 92.613281 88.921875 L 88.140625 88.921875 Z M 88.140625 84.449219 " clip-rule="nonzero"/></clipPath><clipPath id="ea8130031d"><path d="M 158.039062 45.839844 L 162.511719 45.839844 L 162.511719 50.3125 L 158.039062 50.3125 Z M 158.039062 45.839844 " clip-rule="nonzero"/></clipPath><clipPath id="23bb0a7a01"><path d="M 185.332031 80.117188 L 189.808594 80.117188 L 189.808594 84.589844 L 185.332031 84.589844 Z M 185.332031 80.117188 " clip-rule="nonzero"/></clipPath><clipPath id="3e92391736"><path d="M 197.316406 56.148438 L 201.789062 56.148438 L 201.789062 60.625 L 197.316406 60.625 Z M 197.316406 56.148438 " clip-rule="nonzero"/></clipPath><clipPath id="359080ddf3"><path d="M 247.246094 26.191406 L 251.71875 26.191406 L 251.71875 30.667969 L 247.246094 30.667969 Z M 247.246094 26.191406 " clip-rule="nonzero"/></clipPath><clipPath id="e812e66a3a"><path d="M 287.855469 51.816406 L 292.328125 51.816406 L 292.328125 56.289062 L 287.855469 56.289062 Z M 287.855469 51.816406 " clip-rule="nonzero"/></clipPath><clipPath id="879adb99cc"><path d="M 306.492188 10.210938 L 310.96875 10.210938 L 310.96875 14.683594 L 306.492188 14.683594 Z M 306.492188 10.210938 " clip-rule="nonzero"/></clipPath><clipPath id="435cacc8d3"><path d="M 55.519531 8.042969 L 59.992188 8.042969 L 59.992188 12.515625 L 55.519531 12.515625 Z M 55.519531 8.042969 " clip-rule="nonzero"/></clipPath><clipPath id="7e6969345c"><path d="M 9.585938 61.445312 L 14 61.445312 L 14 65.917969 L 9.585938 65.917969 Z M 9.585938 61.445312 " clip-rule="nonzero"/></clipPath><clipPath id="80d24d48d0"><path d="M 18.570312 88.78125 L 23 88.78125 L 23 93.257812 L 18.570312 93.257812 Z M 18.570312 88.78125 " clip-rule="nonzero"/></clipPath></defs><g clip-path="url(#c1518e21f7)"><path fill="#e1e1e1" d="M 362.601562 102 L 365.597656 102 L 365.597656 101.421875 L 362.601562 101.421875 L 362.601562 97.421875 L 365.597656 97.421875 L 365.597656 96.84375 L 362.601562 96.84375 L 362.601562 92.835938 L 365.597656 92.835938 L 365.597656 92.261719 L 362.601562 92.261719 L 362.601562 90.4375 L 362.023438 90.4375 L 362.023438 92.261719 L 358.996094 92.261719 L 358.996094 88.210938 L 358.417969 88.210938 L 358.417969 92.253906 L 355.386719 92.253906 L 355.386719 86.785156 L 354.808594 86.785156 L 354.808594 92.253906 L 351.777344 92.253906 L 351.777344 85.179688 L 351.199219 85.179688 L 351.199219 92.253906 L 348.167969 92.253906 L 348.167969 86.785156 L 347.589844 86.785156 L 347.589844 92.253906 L 344.558594 92.253906 L 344.558594 88.210938 L 343.984375 88.210938 L 343.984375 92.253906 L 342.191406 92.253906 L 343.015625 56.117188 L 349.023438 56.117188 L 344.640625 50.855469 L 328.394531 15.964844 L 314.519531 45.765625 L 307.4375 41.996094 L 307.4375 40.308594 L 309.808594 40.308594 L 310.660156 26.070312 L 313.148438 26.070312 L 305.070312 18.851562 L 296.984375 26.070312 L 299.46875 26.070312 L 300.324219 40.308594 L 302.695312 40.308594 L 302.695312 42.898438 L 313.382812 48.230469 L 312.164062 50.855469 L 307.777344 56.117188 L 313.789062 56.117188 L 314.628906 93.089844 L 312.421875 93.089844 L 312.421875 86.015625 L 311.84375 86.015625 L 311.84375 93.089844 L 308.8125 93.089844 L 308.8125 87.621094 L 308.234375 87.621094 L 308.234375 93.089844 L 305.1875 93.089844 L 305.1875 89.046875 L 304.609375 89.046875 L 304.609375 93.089844 L 302.351562 93.089844 L 302.753906 84.179688 L 307.4375 84.179688 L 285.042969 62.199219 L 273.582031 73.445312 L 268.910156 70.960938 L 268.910156 69.742188 L 271.21875 69.742188 L 272.046875 55.886719 L 274.460938 55.886719 L 266.59375 48.859375 L 258.722656 55.886719 L 261.136719 55.886719 L 261.96875 69.742188 L 264.277344 69.742188 L 264.277344 71.839844 L 271.53125 75.457031 L 262.640625 84.183594 L 267.324219 84.183594 L 267.695312 92.480469 L 267.496094 92.480469 L 267.496094 90.65625 L 266.917969 90.65625 L 266.917969 92.480469 L 263.886719 92.480469 L 263.886719 88.4375 L 263.308594 88.4375 L 263.308594 92.480469 L 260.273438 92.480469 L 260.273438 87.011719 L 259.703125 87.011719 L 259.703125 92.480469 L 256.671875 92.480469 L 256.671875 85.402344 L 256.09375 85.402344 L 256.09375 92.480469 L 253.0625 92.480469 L 253.0625 87.011719 L 252.484375 87.011719 L 252.484375 92.480469 L 249.453125 92.480469 L 249.453125 88.4375 L 248.875 88.4375 L 248.875 92.480469 L 246.722656 92.480469 L 245.792969 92.144531 L 245.792969 90.652344 L 245.21875 90.652344 L 245.21875 91.933594 C 242.015625 90.746094 239.335938 89.578125 237.371094 88.523438 C 232.921875 86.140625 223.949219 87.164062 213.605469 89.691406 L 213.933594 80.371094 L 222.09375 80.65625 L 222.246094 76.300781 L 214.085938 76.015625 L 214.355469 68.390625 L 210.003906 68.238281 L 209.738281 75.863281 L 201.578125 75.574219 L 201.425781 79.925781 L 209.585938 80.210938 L 209.210938 90.820312 C 197.6875 93.960938 185.070312 98.542969 175.300781 102.164062 L 176.980469 90.90625 L 173.261719 90.351562 L 173.914062 85.988281 L 169.386719 85.308594 L 170.0625 80.785156 L 174.300781 81.414062 L 174.640625 79.152344 L 170.398438 78.519531 L 170.992188 74.558594 L 168.726562 74.21875 L 168.136719 78.183594 L 163.894531 77.550781 L 163.558594 79.8125 L 167.796875 80.445312 L 167.121094 84.972656 L 162.59375 84.296875 L 161.941406 88.664062 L 158.222656 88.109375 L 155.214844 108.28125 C 146.726562 109.191406 134.570312 108.722656 121.574219 107.234375 C 119.222656 100.359375 117.84375 89.414062 117.84375 89.414062 L 117.808594 86.84375 L 120.144531 83.304688 L 135.847656 84.011719 L 139.449219 83.265625 L 147.382812 85.964844 L 149.640625 84.519531 L 153.09375 83.386719 L 149.332031 83.757812 L 145.601562 83.535156 L 149.835938 81.378906 L 153.144531 81.105469 L 156.570312 78.476562 L 159.773438 74.425781 L 155.175781 78.105469 L 151.757812 79.757812 L 150.484375 79.25 L 151.824219 74.664062 L 152.945312 71.59375 L 152.988281 69.175781 L 151.964844 71.589844 L 151.105469 72.425781 L 149.507812 67.457031 L 150.238281 62.820312 L 148.664062 67.8125 L 150.578125 74.410156 L 149.402344 78.53125 L 143.464844 81.636719 L 139.671875 80.507812 L 137.148438 81.46875 L 127.515625 79.539062 L 130.703125 74.808594 L 135.105469 74.269531 L 137.683594 72.738281 L 143.402344 73.359375 L 139.371094 71.523438 L 136.882812 71.421875 L 133.257812 72.886719 L 131.996094 72.515625 L 133.21875 67.089844 L 134.5 65.636719 L 138.226562 63.773438 L 134.527344 64.441406 L 135.949219 60.785156 L 137.667969 57.019531 L 141.664062 55.265625 L 138.519531 56.054688 L 138.644531 53.957031 L 142.675781 50.636719 L 137.8125 53.226562 L 134.902344 58.757812 L 133.316406 53.179688 L 132.382812 60.089844 L 133.328125 61.660156 L 130.132812 68.90625 C 130.132812 68.90625 127.96875 75.957031 123.46875 79.113281 L 118.351562 80.742188 L 118.199219 80.9375 L 120.382812 73.375 L 120.648438 66.84375 L 122.3125 64.984375 L 124.734375 60.746094 L 127.46875 58.949219 L 130.015625 57.496094 L 127.859375 58.007812 L 125.925781 58.351562 L 126.816406 56.695312 L 130.667969 53.824219 L 125.859375 56.246094 L 122.898438 61.296875 C 119.496094 61.625 121.246094 57.292969 121.246094 57.292969 L 127.0625 47.457031 L 133.277344 45.566406 L 137.289062 43.945312 L 138.75 40.609375 L 137.65625 35.550781 L 137.867188 40.378906 L 135.839844 43.175781 L 133.402344 43.144531 L 129.550781 44.582031 L 133.578125 40.960938 L 134.078125 37.503906 L 135.269531 32.144531 L 136.644531 25.726562 L 134.636719 19.722656 L 135.609375 25.164062 L 135.113281 28.144531 L 133.710938 32.324219 L 131.765625 29.304688 L 132.601562 33.964844 L 131.773438 38.75 L 125.1875 45.355469 C 125.1875 45.355469 123.621094 42.363281 122.949219 40.144531 C 122.277344 37.925781 125 33.320312 125 33.320312 L 127.882812 24.855469 L 128.355469 17.566406 L 127.652344 10.492188 L 123.398438 5.546875 L 126.070312 10.027344 L 126.121094 12.917969 L 125.996094 16.398438 L 122.089844 13.910156 L 118.832031 9.816406 L 117.929688 0.0625 C 117.558594 1.871094 117.480469 3.695312 117.691406 5.53125 C 118.046875 8.554688 116.078125 7.972656 116.078125 7.972656 L 111.875 5.917969 L 114.019531 7.96875 L 117.054688 9.761719 L 119.511719 14.09375 L 125.914062 19.027344 C 126.839844 23.164062 124.734375 28.125 123.46875 30.972656 C 122.199219 33.820312 121.433594 30.585938 121.433594 30.585938 L 120.089844 23.066406 L 119.246094 26.207031 L 116.773438 22.359375 L 115.503906 16.320312 L 115.21875 21.515625 L 116.21875 25.546875 L 119.984375 30.390625 L 119.863281 37.523438 L 122.054688 45.082031 L 119.300781 51.636719 L 118.105469 47.566406 L 116.292969 37.410156 L 113.09375 34.710938 L 112.921875 31.652344 L 111.910156 34.359375 L 107.820312 29.292969 L 107.402344 25.90625 L 106.667969 30.15625 L 110.84375 36.234375 L 114.898438 38.503906 L 115.734375 45.277344 L 114.457031 48.589844 L 117.179688 54.929688 L 116.726562 58.65625 L 118.34375 63.511719 L 117.03125 67.675781 L 117.664062 71.210938 C 116.910156 75.367188 114.816406 72.5625 114.816406 72.5625 L 112.34375 64.492188 L 113.699219 60.039062 L 112.488281 55.378906 L 113.816406 53.378906 L 111.863281 55.042969 L 111.390625 57.09375 L 109.988281 55.003906 L 109.964844 50.707031 L 108.769531 56.050781 L 111.359375 59.53125 L 110.386719 61.949219 L 107.265625 52.875 L 107.234375 52.597656 L 106.453125 45.722656 L 102.921875 41.675781 C 100.714844 36.648438 102.519531 29.5 102.519531 29.5 L 103.546875 21.644531 L 105.171875 20.792969 L 109.46875 18.152344 L 111.226562 15.402344 L 108.988281 17.015625 L 107.371094 17.398438 L 107.957031 14.394531 L 105.746094 18.246094 L 103.703125 18.332031 L 104.085938 12.089844 L 101.273438 7.355469 L 102.996094 12.292969 L 102.015625 14.15625 L 99.734375 11.855469 L 102.242188 15.425781 L 101.761719 19.535156 L 101.082031 23.398438 L 98.265625 20.914062 L 100.488281 24.445312 L 100.832031 26.347656 L 99.0625 31.621094 L 97.785156 31.289062 L 95.445312 28.152344 L 93.269531 26.953125 L 88.871094 26.429688 L 94.078125 28.867188 L 95.488281 31.511719 L 98.964844 34.257812 L 99.238281 39.953125 L 90 36.609375 L 88.339844 34.472656 L 84.515625 33.480469 L 81.054688 27.738281 L 82.1875 23.605469 L 87.246094 18.960938 L 88.492188 13.875 L 86.714844 18.195312 L 82.777344 21.613281 L 82.476562 20.453125 L 82.847656 17.859375 L 81.632812 19.949219 L 80.996094 23.148438 L 79.765625 27.765625 L 78.417969 27.539062 L 76.351562 24.355469 L 74.332031 18.824219 L 74.96875 23.949219 L 76.523438 27.972656 L 79.210938 29.921875 L 81.710938 33.964844 L 78.40625 32.21875 L 75.382812 29.953125 L 77.742188 32.710938 L 78.921875 35.117188 L 87.105469 36.929688 L 89.800781 39.4375 L 103.59375 46.980469 L 103.890625 54.394531 L 105.585938 57.972656 L 108.304688 63.722656 L 109.703125 71.519531 L 110.304688 74.875 L 111.175781 79.71875 L 107.140625 74.5 L 102.023438 72.875 C 97.527344 69.71875 95.359375 62.667969 95.359375 62.667969 L 92.152344 55.417969 L 93.101562 53.84375 L 95.40625 49.359375 L 95.480469 46.101562 L 94.40625 48.644531 L 93.226562 49.808594 L 92.167969 46.9375 L 92.277344 51.378906 L 90.574219 52.511719 L 87.660156 46.976562 L 82.800781 44.386719 L 86.839844 47.710938 L 86.964844 49.808594 L 83.816406 49.023438 L 87.816406 50.773438 L 89.535156 54.535156 L 90.957031 58.191406 L 87.257812 57.527344 L 90.988281 59.394531 L 92.265625 60.84375 L 93.488281 66.273438 L 92.226562 66.644531 L 88.601562 65.175781 L 86.113281 65.28125 L 82.082031 67.117188 L 87.800781 66.496094 L 90.378906 68.027344 L 94.78125 68.566406 L 97.96875 73.292969 L 88.335938 75.226562 L 85.8125 74.261719 L 82.023438 75.394531 L 76.085938 72.285156 L 74.910156 68.164062 L 76.824219 61.566406 L 75.246094 56.574219 L 75.976562 61.210938 L 74.382812 66.179688 L 73.519531 65.34375 L 72.496094 62.929688 L 72.542969 65.347656 L 73.652344 68.417969 L 74.996094 73.003906 L 73.722656 73.511719 L 70.308594 71.855469 L 65.710938 68.171875 L 68.914062 72.222656 L 72.339844 74.855469 L 75.648438 75.128906 L 79.878906 77.289062 L 76.152344 77.511719 L 72.390625 77.136719 L 75.84375 78.269531 L 78.101562 79.714844 L 86.035156 77.019531 L 89.636719 77.761719 L 105.339844 77.058594 L 109.441406 83.238281 L 109.871094 83.523438 L 108.730469 85.625 C 108.910156 89.945312 107.695312 98.25 106.507812 105.117188 C 95.394531 103.261719 84.449219 100.785156 75.351562 97.910156 C 70.367188 96.332031 64.78125 95.628906 58.96875 95.539062 L 59.703125 63.253906 L 65.710938 63.253906 L 61.328125 57.992188 L 45.082031 23.105469 L 31.210938 52.902344 L 24.125 49.136719 L 24.125 47.445312 L 26.496094 47.445312 L 27.347656 33.210938 L 29.835938 33.210938 L 21.757812 25.992188 L 13.671875 33.210938 L 16.160156 33.210938 L 17.011719 47.445312 L 19.382812 47.445312 L 19.382812 50.039062 L 30.070312 55.371094 L 28.851562 57.992188 L 24.453125 63.257812 L 30.464844 63.257812 L 31.269531 98.664062 C 14.523438 102.222656 1.089844 107.554688 1.089844 107.554688 L 1.089844 127.160156 L 373.910156 127.160156 L 373.910156 107.554688 C 369.78125 108.441406 366.035156 108.871094 362.601562 108.949219 Z M 307.4375 35.078125 L 302.679688 35.078125 L 302.679688 26.296875 L 304.945312 26.296875 L 304.945312 30.574219 L 302.679688 30.574219 L 302.679688 30.800781 L 304.945312 30.800781 L 304.945312 35.078125 L 305.171875 35.078125 L 305.171875 30.800781 L 307.4375 30.800781 Z M 307.4375 30.574219 L 305.175781 30.574219 L 305.175781 26.296875 L 307.441406 26.296875 Z M 264.273438 64.652344 L 264.273438 56.101562 L 268.90625 56.101562 L 268.90625 60.195312 L 266.773438 60.195312 L 266.773438 56.101562 L 266.414062 56.101562 L 266.414062 60.195312 L 264.28125 60.195312 L 264.28125 60.558594 L 266.414062 60.558594 L 266.414062 64.652344 L 266.777344 64.652344 L 266.777344 60.558594 L 268.914062 60.558594 L 268.914062 64.652344 Z M 24.128906 42.21875 L 19.375 42.21875 L 19.375 33.433594 L 21.640625 33.433594 L 21.640625 37.714844 L 19.375 37.714844 L 19.375 37.9375 L 21.640625 37.9375 L 21.640625 42.214844 L 21.863281 42.214844 L 21.863281 37.9375 L 24.128906 37.9375 Z M 24.128906 37.714844 L 21.863281 37.714844 L 21.863281 33.433594 L 24.128906 33.433594 Z M 45.195312 76.5 L 49.296875 76.5 L 49.296875 76.277344 L 45.195312 76.277344 L 45.195312 68.613281 L 49.296875 68.613281 L 49.296875 84.160156 L 45.195312 84.160156 Z M 40.875 68.613281 L 44.976562 68.613281 L 44.976562 76.277344 L 40.875 76.277344 Z M 40.875 76.5 L 44.976562 76.5 L 44.976562 84.160156 L 40.875 84.160156 Z M 40.875 91.425781 L 49.292969 91.425781 L 49.292969 95.898438 C 47.925781 96.015625 46.558594 96.15625 45.195312 96.316406 L 45.195312 91.421875 L 44.96875 91.421875 L 44.96875 96.34375 C 43.597656 96.507812 42.230469 96.695312 40.867188 96.898438 Z M 161.171875 95.777344 L 165.410156 96.40625 L 166 92.449219 L 168.265625 92.789062 L 167.671875 96.75 L 171.914062 97.382812 L 171.578125 99.648438 L 167.335938 99.015625 L 166.371094 105.488281 C 165.492188 105.808594 164.675781 106.105469 163.925781 106.371094 L 165.074219 98.675781 L 160.832031 98.042969 Z M 358.996094 92.832031 L 362.027344 92.832031 L 362.027344 96.839844 L 358.996094 96.839844 Z M 358.996094 97.414062 L 362.027344 97.414062 L 362.027344 101.421875 L 358.996094 101.421875 Z M 355.386719 92.832031 L 358.417969 92.832031 L 358.417969 96.839844 L 355.386719 96.839844 Z M 355.386719 97.414062 L 358.417969 97.414062 L 358.417969 101.421875 L 355.386719 101.421875 Z M 358.417969 102 L 358.417969 108.867188 C 357.378906 108.804688 356.367188 108.707031 355.386719 108.582031 L 355.386719 101.996094 Z M 351.777344 92.832031 L 354.808594 92.832031 L 354.808594 96.839844 L 351.777344 96.839844 Z M 351.777344 97.414062 L 354.808594 97.414062 L 354.808594 101.421875 L 351.777344 101.421875 Z M 354.808594 102 L 354.808594 108.503906 C 353.765625 108.355469 352.757812 108.175781 351.777344 107.964844 L 351.777344 102 Z M 348.167969 92.832031 L 351.199219 92.832031 L 351.199219 96.839844 L 348.167969 96.839844 Z M 348.167969 97.414062 L 351.199219 97.414062 L 351.199219 101.421875 L 348.167969 101.421875 Z M 351.199219 102 L 351.199219 107.839844 C 350.15625 107.605469 349.148438 107.34375 348.167969 107.046875 L 348.167969 102 Z M 344.558594 92.832031 L 347.589844 92.832031 L 347.589844 96.839844 L 344.558594 96.839844 Z M 344.558594 97.414062 L 347.589844 97.414062 L 347.589844 101.421875 L 344.558594 101.421875 Z M 347.589844 102 L 347.589844 106.871094 C 346.546875 106.546875 345.535156 106.199219 344.558594 105.824219 L 344.558594 102 Z M 342.074219 97.421875 L 343.980469 97.421875 L 343.980469 101.425781 L 341.984375 101.425781 Z M 341.96875 102.003906 L 343.980469 102.003906 L 343.980469 105.609375 C 343.273438 105.332031 342.582031 105.042969 341.90625 104.75 Z M 343.980469 92.835938 L 343.980469 96.84375 L 342.085938 96.84375 L 342.179688 92.835938 Z M 328.503906 69.367188 L 332.605469 69.367188 L 332.605469 69.140625 L 328.503906 69.140625 L 328.503906 61.480469 L 332.605469 61.480469 L 332.605469 77.023438 L 328.503906 77.023438 Z M 324.183594 61.480469 L 328.285156 61.480469 L 328.285156 69.140625 L 324.183594 69.140625 Z M 324.183594 69.367188 L 328.285156 69.367188 L 328.285156 77.023438 L 324.183594 77.023438 Z M 324.183594 84.292969 L 332.605469 84.292969 L 332.605469 99.839844 L 331.859375 99.839844 C 330.730469 99.289062 329.621094 98.773438 328.511719 98.3125 L 328.511719 92.175781 L 332.613281 92.175781 L 332.613281 91.953125 L 328.511719 91.953125 L 328.511719 84.292969 L 328.289062 84.292969 L 328.289062 91.953125 L 324.1875 91.953125 Z M 328.285156 92.175781 L 328.285156 98.21875 C 326.949219 97.664062 325.582031 97.207031 324.183594 96.84375 L 324.183594 93.675781 L 326.234375 93.675781 L 326.234375 93.097656 L 324.183594 93.097656 L 324.183594 92.175781 Z M 314.632812 93.667969 L 314.703125 96.785156 C 313.925781 96.980469 313.164062 97.214844 312.410156 97.488281 L 312.410156 93.667969 Z M 308.800781 93.667969 L 311.835938 93.667969 L 311.835938 97.667969 L 308.800781 97.667969 Z M 310.488281 98.25 C 309.941406 98.464844 309.378906 98.667969 308.800781 98.855469 L 308.800781 98.25 Z M 305.1875 93.667969 L 308.21875 93.667969 L 308.21875 97.667969 L 305.1875 97.667969 Z M 308.21875 98.253906 L 308.21875 99.035156 C 307.242188 99.332031 306.230469 99.59375 305.1875 99.820312 L 305.1875 98.25 Z M 264.921875 97.640625 L 266.921875 97.640625 L 266.921875 98.070312 C 266.25 97.929688 265.585938 97.789062 264.921875 97.640625 Z M 280.199219 80.683594 L 284.863281 80.683594 L 284.863281 85.347656 C 284.25 85.324219 283.664062 85.191406 283.105469 84.949219 C 282.542969 84.703125 282.046875 84.367188 281.613281 83.933594 C 281.179688 83.5 280.84375 83.003906 280.597656 82.441406 C 280.355469 81.878906 280.222656 81.292969 280.199219 80.683594 Z M 297.242188 100.878906 C 295.964844 100.960938 294.65625 101.003906 293.328125 101.019531 L 293.328125 98.027344 L 297.242188 98.027344 Z M 292.964844 101.023438 C 291.675781 101.03125 290.367188 101.007812 289.042969 100.960938 L 289.042969 98.027344 L 292.964844 98.027344 Z M 281.042969 100.355469 C 279.738281 100.210938 278.433594 100.046875 277.128906 99.863281 L 277.128906 98.027344 L 281.042969 98.027344 Z M 302.03125 100.390625 L 302.125 98.253906 L 304.613281 98.253906 L 304.613281 99.941406 C 303.769531 100.113281 302.90625 100.261719 302.027344 100.390625 Z M 304.617188 93.667969 L 304.617188 97.667969 L 302.152344 97.667969 L 302.332031 93.664062 Z M 297.238281 97.667969 L 293.324219 97.667969 L 293.324219 90.285156 L 292.960938 90.285156 L 292.960938 97.667969 L 289.042969 97.667969 L 289.042969 90.285156 L 297.242188 90.285156 Z M 285.226562 75.660156 C 285.835938 75.683594 286.421875 75.816406 286.984375 76.058594 C 287.542969 76.304688 288.039062 76.644531 288.472656 77.074219 C 288.90625 77.507812 289.242188 78.003906 289.488281 78.566406 C 289.734375 79.125 289.867188 79.710938 289.890625 80.324219 L 285.226562 80.324219 Z M 285.226562 80.6875 L 289.886719 80.6875 C 289.867188 81.300781 289.734375 81.886719 289.488281 82.449219 C 289.246094 83.007812 288.90625 83.507812 288.476562 83.9375 C 288.042969 84.371094 287.546875 84.710938 286.984375 84.957031 C 286.421875 85.199219 285.835938 85.332031 285.226562 85.355469 Z M 284.859375 75.660156 L 284.859375 80.324219 L 280.195312 80.324219 C 280.21875 79.710938 280.351562 79.125 280.59375 78.5625 C 280.839844 78.003906 281.175781 77.503906 281.609375 77.070312 C 282.042969 76.636719 282.539062 76.300781 283.101562 76.054688 C 283.660156 75.808594 284.246094 75.675781 284.859375 75.652344 Z M 272.839844 90.285156 L 281.042969 90.285156 L 281.042969 97.667969 L 277.125 97.667969 L 277.125 90.285156 L 276.761719 90.285156 L 276.761719 97.667969 L 272.84375 97.667969 Z M 276.757812 98.035156 L 276.757812 99.816406 C 275.449219 99.628906 274.144531 99.425781 272.839844 99.203125 L 272.839844 98.035156 Z M 267.496094 93.0625 L 267.726562 93.0625 L 267.90625 97.070312 L 267.496094 97.070312 Z M 267.933594 97.648438 L 267.960938 98.292969 L 267.496094 98.199219 L 267.496094 97.648438 Z M 263.886719 93.0625 L 266.917969 93.0625 L 266.917969 97.070312 L 263.886719 97.070312 Z M 263.308594 93.0625 L 263.308594 97.070312 L 262.410156 97.070312 C 261.691406 96.898438 260.980469 96.726562 260.277344 96.546875 L 260.277344 93.066406 Z M 259.707031 93.0625 L 259.707031 96.402344 C 258.675781 96.136719 257.667969 95.871094 256.671875 95.59375 L 256.671875 93.0625 Z M 256.09375 93.0625 L 256.09375 95.433594 C 255.0625 95.144531 254.050781 94.851562 253.0625 94.550781 L 253.0625 93.0625 Z M 252.492188 93.0625 L 252.492188 94.382812 C 251.449219 94.0625 250.441406 93.742188 249.457031 93.417969 L 249.457031 93.0625 Z M 248.886719 93.0625 L 248.886719 93.226562 L 248.398438 93.0625 Z M 358.996094 108.902344 L 358.996094 102 L 362.027344 102 L 362.027344 108.957031 C 360.988281 108.972656 359.976562 108.953125 358.996094 108.902344 Z M 358.996094 108.902344 " fill-opacity="1" fill-rule="nonzero"/></g><g clip-path="url(#261d6bc2b9)"><path fill="#fff961" d="M 92.460938 86.609375 C 92.460938 86.898438 92.40625 87.171875 92.296875 87.4375 C 92.1875 87.703125 92.03125 87.9375 91.828125 88.140625 C 91.625 88.339844 91.390625 88.496094 91.128906 88.605469 C 90.863281 88.71875 90.585938 88.773438 90.300781 88.773438 C 90.011719 88.773438 89.738281 88.71875 89.472656 88.605469 C 89.207031 88.496094 88.972656 88.339844 88.773438 88.140625 C 88.570312 87.9375 88.414062 87.703125 88.304688 87.4375 C 88.195312 87.171875 88.140625 86.898438 88.140625 86.609375 C 88.140625 86.324219 88.195312 86.046875 88.304688 85.785156 C 88.414062 85.519531 88.570312 85.285156 88.773438 85.082031 C 88.972656 84.878906 89.207031 84.722656 89.472656 84.613281 C 89.738281 84.503906 90.011719 84.449219 90.300781 84.449219 C 90.585938 84.449219 90.863281 84.503906 91.128906 84.613281 C 91.390625 84.722656 91.625 84.878906 91.828125 85.082031 C 92.03125 85.285156 92.1875 85.519531 92.296875 85.785156 C 92.40625 86.046875 92.460938 86.324219 92.460938 86.609375 Z M 92.460938 86.609375 " fill-opacity="1" fill-rule="nonzero"/></g><g clip-path="url(#ea8130031d)"><path fill="#fff961" d="M 162.363281 48 C 162.363281 48.285156 162.304688 48.5625 162.195312 48.824219 C 162.085938 49.089844 161.929688 49.324219 161.726562 49.527344 C 161.527344 49.730469 161.292969 49.886719 161.027344 49.996094 C 160.761719 50.105469 160.488281 50.160156 160.199219 50.160156 C 159.914062 50.160156 159.636719 50.105469 159.375 49.996094 C 159.109375 49.886719 158.875 49.730469 158.671875 49.527344 C 158.46875 49.324219 158.3125 49.089844 158.203125 48.824219 C 158.09375 48.5625 158.039062 48.285156 158.039062 48 C 158.039062 47.710938 158.09375 47.4375 158.203125 47.171875 C 158.3125 46.90625 158.46875 46.671875 158.671875 46.472656 C 158.875 46.269531 159.109375 46.113281 159.375 46.003906 C 159.636719 45.894531 159.914062 45.839844 160.199219 45.839844 C 160.488281 45.839844 160.761719 45.894531 161.027344 46.003906 C 161.292969 46.113281 161.527344 46.269531 161.726562 46.472656 C 161.929688 46.671875 162.085938 46.90625 162.195312 47.171875 C 162.304688 47.4375 162.363281 47.710938 162.363281 48 Z M 162.363281 48 " fill-opacity="1" fill-rule="nonzero"/></g><g clip-path="url(#23bb0a7a01)"><path fill="#fff961" d="M 189.65625 82.277344 C 189.65625 82.5625 189.601562 82.839844 189.492188 83.105469 C 189.382812 83.367188 189.226562 83.601562 189.023438 83.804688 C 188.820312 84.007812 188.585938 84.164062 188.320312 84.273438 C 188.058594 84.382812 187.78125 84.4375 187.496094 84.4375 C 187.207031 84.4375 186.933594 84.382812 186.667969 84.273438 C 186.402344 84.164062 186.167969 84.007812 185.964844 83.804688 C 185.765625 83.601562 185.609375 83.367188 185.496094 83.105469 C 185.386719 82.839844 185.332031 82.5625 185.332031 82.277344 C 185.332031 81.992188 185.386719 81.714844 185.496094 81.449219 C 185.609375 81.183594 185.765625 80.953125 185.964844 80.75 C 186.167969 80.546875 186.402344 80.390625 186.667969 80.28125 C 186.933594 80.171875 187.207031 80.117188 187.496094 80.117188 C 187.78125 80.117188 188.058594 80.171875 188.320312 80.28125 C 188.585938 80.390625 188.820312 80.546875 189.023438 80.75 C 189.226562 80.953125 189.382812 81.183594 189.492188 81.449219 C 189.601562 81.714844 189.65625 81.992188 189.65625 82.277344 Z M 189.65625 82.277344 " fill-opacity="1" fill-rule="nonzero"/></g><g clip-path="url(#3e92391736)"><path fill="#fff961" d="M 201.636719 58.3125 C 201.636719 58.597656 201.582031 58.875 201.472656 59.136719 C 201.363281 59.402344 201.207031 59.636719 201.003906 59.839844 C 200.804688 60.042969 200.570312 60.199219 200.304688 60.308594 C 200.039062 60.417969 199.765625 60.472656 199.476562 60.472656 C 199.191406 60.472656 198.914062 60.417969 198.648438 60.308594 C 198.386719 60.199219 198.152344 60.042969 197.949219 59.839844 C 197.746094 59.636719 197.589844 59.402344 197.480469 59.136719 C 197.371094 58.875 197.316406 58.597656 197.316406 58.3125 C 197.316406 58.023438 197.371094 57.75 197.480469 57.484375 C 197.589844 57.21875 197.746094 56.984375 197.949219 56.785156 C 198.152344 56.582031 198.386719 56.425781 198.648438 56.316406 C 198.914062 56.207031 199.191406 56.148438 199.476562 56.148438 C 199.765625 56.148438 200.039062 56.207031 200.304688 56.316406 C 200.570312 56.425781 200.804688 56.582031 201.003906 56.785156 C 201.207031 56.984375 201.363281 57.21875 201.472656 57.484375 C 201.582031 57.75 201.636719 58.023438 201.636719 58.3125 Z M 201.636719 58.3125 " fill-opacity="1" fill-rule="nonzero"/></g><g clip-path="url(#359080ddf3)"><path fill="#fff961" d="M 251.566406 28.355469 C 251.566406 28.640625 251.511719 28.917969 251.402344 29.179688 C 251.292969 29.445312 251.136719 29.679688 250.933594 29.882812 C 250.730469 30.085938 250.496094 30.242188 250.234375 30.351562 C 249.96875 30.460938 249.691406 30.515625 249.40625 30.515625 C 249.121094 30.515625 248.84375 30.460938 248.578125 30.351562 C 248.3125 30.242188 248.082031 30.085938 247.878906 29.882812 C 247.675781 29.679688 247.519531 29.445312 247.410156 29.179688 C 247.300781 28.917969 247.246094 28.640625 247.246094 28.355469 C 247.246094 28.066406 247.300781 27.792969 247.410156 27.527344 C 247.519531 27.261719 247.675781 27.027344 247.878906 26.824219 C 248.082031 26.625 248.3125 26.46875 248.578125 26.359375 C 248.84375 26.246094 249.121094 26.191406 249.40625 26.191406 C 249.691406 26.191406 249.96875 26.246094 250.234375 26.359375 C 250.496094 26.46875 250.730469 26.625 250.933594 26.824219 C 251.136719 27.027344 251.292969 27.261719 251.402344 27.527344 C 251.511719 27.792969 251.566406 28.066406 251.566406 28.355469 Z M 251.566406 28.355469 " fill-opacity="1" fill-rule="nonzero"/></g><g clip-path="url(#e812e66a3a)"><path fill="#fff961" d="M 292.175781 53.976562 C 292.175781 54.265625 292.121094 54.539062 292.011719 54.804688 C 291.902344 55.070312 291.746094 55.304688 291.542969 55.507812 C 291.339844 55.710938 291.105469 55.863281 290.84375 55.976562 C 290.578125 56.085938 290.300781 56.140625 290.015625 56.140625 C 289.726562 56.140625 289.453125 56.085938 289.1875 55.976562 C 288.921875 55.863281 288.6875 55.710938 288.488281 55.507812 C 288.285156 55.304688 288.128906 55.070312 288.019531 54.804688 C 287.910156 54.539062 287.855469 54.265625 287.855469 53.976562 C 287.855469 53.691406 287.910156 53.414062 288.019531 53.152344 C 288.128906 52.886719 288.285156 52.652344 288.488281 52.449219 C 288.6875 52.246094 288.921875 52.089844 289.1875 51.980469 C 289.453125 51.871094 289.726562 51.816406 290.015625 51.816406 C 290.300781 51.816406 290.578125 51.871094 290.84375 51.980469 C 291.105469 52.089844 291.339844 52.246094 291.542969 52.449219 C 291.746094 52.652344 291.902344 52.886719 292.011719 53.152344 C 292.121094 53.414062 292.175781 53.691406 292.175781 53.976562 Z M 292.175781 53.976562 " fill-opacity="1" fill-rule="nonzero"/></g><g clip-path="url(#879adb99cc)"><path fill="#fff961" d="M 310.816406 12.371094 C 310.816406 12.65625 310.761719 12.933594 310.652344 13.199219 C 310.542969 13.460938 310.386719 13.695312 310.183594 13.898438 C 309.980469 14.101562 309.746094 14.257812 309.480469 14.367188 C 309.21875 14.476562 308.941406 14.53125 308.65625 14.53125 C 308.367188 14.53125 308.09375 14.476562 307.828125 14.367188 C 307.5625 14.257812 307.328125 14.101562 307.125 13.898438 C 306.925781 13.695312 306.769531 13.460938 306.65625 13.199219 C 306.546875 12.933594 306.492188 12.65625 306.492188 12.371094 C 306.492188 12.085938 306.546875 11.808594 306.65625 11.542969 C 306.769531 11.277344 306.925781 11.046875 307.125 10.84375 C 307.328125 10.640625 307.5625 10.484375 307.828125 10.375 C 308.09375 10.265625 308.367188 10.210938 308.65625 10.210938 C 308.941406 10.210938 309.21875 10.265625 309.480469 10.375 C 309.746094 10.484375 309.980469 10.640625 310.183594 10.84375 C 310.386719 11.046875 310.542969 11.277344 310.652344 11.542969 C 310.761719 11.808594 310.816406 12.085938 310.816406 12.371094 Z M 310.816406 12.371094 " fill-opacity="1" fill-rule="nonzero"/></g><g clip-path="url(#435cacc8d3)"><path fill="#fff961" d="M 59.839844 10.203125 C 59.839844 10.492188 59.785156 10.765625 59.675781 11.03125 C 59.566406 11.296875 59.410156 11.53125 59.207031 11.734375 C 59.003906 11.933594 58.773438 12.089844 58.507812 12.199219 C 58.242188 12.3125 57.964844 12.367188 57.679688 12.367188 C 57.394531 12.367188 57.117188 12.3125 56.851562 12.199219 C 56.589844 12.089844 56.355469 11.933594 56.152344 11.734375 C 55.949219 11.53125 55.792969 11.296875 55.683594 11.03125 C 55.574219 10.765625 55.519531 10.492188 55.519531 10.203125 C 55.519531 9.917969 55.574219 9.640625 55.683594 9.378906 C 55.792969 9.113281 55.949219 8.878906 56.152344 8.675781 C 56.355469 8.472656 56.589844 8.316406 56.851562 8.207031 C 57.117188 8.097656 57.394531 8.042969 57.679688 8.042969 C 57.964844 8.042969 58.242188 8.097656 58.507812 8.207031 C 58.773438 8.316406 59.003906 8.472656 59.207031 8.675781 C 59.410156 8.878906 59.566406 9.113281 59.675781 9.378906 C 59.785156 9.640625 59.839844 9.917969 59.839844 10.203125 Z M 59.839844 10.203125 " fill-opacity="1" fill-rule="nonzero"/></g><g clip-path="url(#7e6969345c)"><path fill="#fff961" d="M 13.90625 63.605469 C 13.90625 63.894531 13.851562 64.167969 13.742188 64.433594 C 13.632812 64.699219 13.476562 64.933594 13.273438 65.136719 C 13.070312 65.335938 12.835938 65.492188 12.574219 65.605469 C 12.308594 65.714844 12.03125 65.769531 11.746094 65.769531 C 11.460938 65.769531 11.183594 65.714844 10.917969 65.605469 C 10.652344 65.492188 10.421875 65.335938 10.21875 65.136719 C 10.015625 64.933594 9.859375 64.699219 9.75 64.433594 C 9.640625 64.167969 9.585938 63.894531 9.585938 63.605469 C 9.585938 63.320312 9.640625 63.042969 9.75 62.78125 C 9.859375 62.515625 10.015625 62.28125 10.21875 62.078125 C 10.421875 61.875 10.652344 61.71875 10.917969 61.609375 C 11.183594 61.5 11.460938 61.445312 11.746094 61.445312 C 12.03125 61.445312 12.308594 61.5 12.574219 61.609375 C 12.835938 61.71875 13.070312 61.875 13.273438 62.078125 C 13.476562 62.28125 13.632812 62.515625 13.742188 62.78125 C 13.851562 63.042969 13.90625 63.320312 13.90625 63.605469 Z M 13.90625 63.605469 " fill-opacity="1" fill-rule="nonzero"/></g><g clip-path="url(#80d24d48d0)"><path fill="#fff961" d="M 22.894531 90.945312 C 22.894531 91.230469 22.839844 91.507812 22.730469 91.769531 C 22.621094 92.035156 22.464844 92.269531 22.261719 92.472656 C 22.058594 92.675781 21.824219 92.832031 21.558594 92.941406 C 21.296875 93.050781 21.019531 93.105469 20.734375 93.105469 C 20.445312 93.105469 20.171875 93.050781 19.90625 92.941406 C 19.640625 92.832031 19.40625 92.675781 19.203125 92.472656 C 19 92.269531 18.847656 92.035156 18.734375 91.769531 C 18.625 91.507812 18.570312 91.230469 18.570312 90.945312 C 18.570312 90.65625 18.625 90.382812 18.734375 90.117188 C 18.847656 89.851562 19 89.617188 19.203125 89.414062 C 19.40625 89.214844 19.640625 89.058594 19.90625 88.945312 C 20.171875 88.835938 20.445312 88.78125 20.734375 88.78125 C 21.019531 88.78125 21.296875 88.835938 21.558594 88.945312 C 21.824219 89.058594 22.058594 89.214844 22.261719 89.414062 C 22.464844 89.617188 22.621094 89.851562 22.730469 90.117188 C 22.839844 90.382812 22.894531 90.65625 22.894531 90.945312 Z M 22.894531 90.945312 " fill-opacity="1" fill-rule="nonzero"/></g></svg>